Coordinates
version=1
nRows=13
nColumns=40
inDegrees=yes

Units are S.I. units (second, meters, Newtons, ...)
Angles are in degrees.

endheader
time	pelvis_tilt	pelvis_list	pelvis_rotation	pelvis_tx	pelvis_ty	pelvis_tz	hip_flexion_r	hip_adduction_r	hip_rotation_r	knee_angle_r	knee_angle_r_beta	ankle_angle_r	subtalar_angle_r	mtp_angle_r	hip_flexion_l	hip_adduction_l	hip_rotation_l	knee_angle_l	knee_angle_l_beta	ankle_angle_l	subtalar_angle_l	mtp_angle_l	lumbar_extension	lumbar_bending	lumbar_rotation	arm_flex_r	arm_add_r	arm_rot_r	elbow_flex_r	pro_sup_r	wrist_flex_r	wrist_dev_r	arm_flex_l	arm_add_l	arm_rot_l	elbow_flex_l	pro_sup_l	wrist_flex_l	wrist_dev_l
      0.00000000	     -3.87760801	     -1.57925792	     10.90138424	     -0.71772296	      0.87780980	     -1.04220355	     32.41418346	     -3.22380822	    -16.41925730	    -41.54357142	     -0.72507210	      4.49341567	    -14.43685289	     17.71767428	      5.46989906	      6.10722166	     11.72702666	    -26.09444489	     -0.45543398	     14.91604556	      4.17787941	     -6.42220322	     -6.89428300	     -0.38692505	    -11.15865640	     -6.14327292	     -8.39763739	    -15.06009320	     24.40335071	     89.95437384	      0.00000000	      0.00000000	      8.84582481	     17.17862869	     15.26136949	     54.18130943	     89.95437384	      0.00000000	      0.00000000
      0.01000000	     -3.91187341	     -1.51137630	     10.94531975	     -0.70726784	      0.87652706	     -1.04351210	     32.68808579	     -3.46546237	    -16.59779322	    -38.39991686	     -0.67020498	      4.63529498	    -13.95247477	     17.70554613	      4.53937267	      6.08338711	     11.85895786	    -25.79630816	     -0.45023051	     15.22735259	      4.05672738	     -6.46726092	     -6.88957035	     -0.36923062	    -11.41459321	     -6.28129530	     -8.43067182	    -15.64334121	     23.93198923	     89.95437384	      0.00000000	      0.00000000	      9.17305219	     17.56474155	     15.19416972	     55.81907127	     89.95437384	      0.00000000	      0.00000000
      0.02000000	     -4.35639352	     -1.20151250	     10.97761884	     -0.69670011	      0.87442750	     -1.04495170	     33.51352150	     -4.14798292	    -16.86876443	    -35.66250177	     -0.62242808	      4.84328723	    -13.43251067	     17.57199391	      4.05146310	      5.70557521	     12.10840169	    -25.59302523	     -0.44668256	     15.38777672	      3.88299178	     -6.44730513	     -6.41519012	     -0.70010899	    -11.59294300	     -6.74264755	     -8.50264999	    -15.82123068	     23.81820608	     89.95437384	      0.00000000	      0.00000000	      9.52984274	     17.93579073	     14.89006747	     57.18481469	     89.95437384	      0.00000000	      0.00000000
      0.03000000	     -4.41840142	     -1.17820879	     11.15095394	     -0.68618435	      0.87296170	     -1.04594913	     33.69043533	     -4.30161454	    -16.89476909	    -32.53856805	     -0.56790515	      4.77594924	    -12.43475871	     17.48947962	      3.22210847	      5.74262979	     11.99917796	    -25.33017826	     -0.44209501	     15.54941117	      3.67209894	     -6.46592898	     -6.41298587	     -0.67762067	    -11.96246746	     -6.86285513	     -8.45151150	    -16.36750801	     23.47112563	     89.95437384	      0.00000000	      0.00000000	      9.73505086	     18.47252863	     14.57880336	     58.94309952	     89.95437384	      0.00000000	      0.00000000
      0.04000000	     -3.98212551	     -1.26897500	     11.23839412	     -0.67481391	      0.87217120	     -1.04690131	     33.25057631	     -4.38472658	    -17.86034913	    -29.59633860	     -0.51655356	      4.91498079	    -11.51650609	     17.30544741	      1.74750977	      6.08358616	     12.32256288	    -24.97644449	     -0.43592119	     15.52314961	      3.24133523	     -6.60806277	     -6.85252721	     -0.38753512	    -12.13851995	     -6.93338265	     -8.42549361	    -17.19888186	     23.01731678	     89.95437384	      0.00000000	      0.00000000	     10.10705473	     18.73988751	     14.53244599	     60.40084621	     89.95437384	      0.00000000	      0.00000000
      0.05000000	     -3.95185323	     -1.21306145	     11.31425325	     -0.66371318	      0.87061558	     -1.04779474	     33.41237338	     -4.70893947	    -18.70110950	    -27.25825781	     -0.47574635	      5.03006079	    -10.45150116	     16.68104856	      0.81278756	      6.21621334	     12.70834085	    -24.86109685	     -0.43390800	     15.54709340	      2.72315888	     -6.77120087	     -6.89316037	     -0.34980499	    -12.30274238	     -7.18068614	     -8.41579354	    -17.69791365	     22.94195202	     89.95437384	      0.00000000	      0.00000000	     10.41971165	     19.09715139	     14.29244503	     61.79753231	     89.95437384	      0.00000000	      0.00000000
      0.06000000	     -4.28314896	     -0.94849434	     11.24981465	     -0.65253621	      0.86838697	     -1.04851745	     34.22579064	     -5.27368915	    -19.36485320	    -25.78395362	     -0.45001488	      5.16790343	    -10.25600623	     16.55567656	      0.24930191	      5.99521173	     13.03958731	    -24.84751901	     -0.43367102	     15.60068586	      2.69366392	     -6.75672491	     -6.52048836	     -0.60512326	    -12.29804537	     -7.56000509	     -8.46666786	    -17.82701533	     22.83992680	     89.95437384	      0.00000000	      0.00000000	     10.76380115	     19.37451720	     14.09120678	     62.94665826	     89.95437384	      0.00000000	      0.00000000
      0.07000000	     -3.97649383	     -1.04603534	     11.50880614	     -0.64076944	      0.86725634	     -1.04902144	     33.94856826	     -5.42888936	    -20.58014923	    -23.98916338	     -0.41868989	      4.95077804	     -8.64726171	     15.67033980	     -0.90002188	      6.43945450	     13.23585242	    -24.79744480	     -0.43279706	     15.33467101	      1.99855313	     -6.94663976	     -6.81292536	     -0.35466722	    -12.71675990	     -7.59558027	     -8.34218678	    -18.55272371	     22.61097161	     89.95437384	      0.00000000	      0.00000000	     10.85712786	     19.82519144	     13.91197358	     64.37767130	     89.95437384	      0.00000000	      0.00000000
      0.08000000	     -4.02650545	     -0.95542003	     11.58975627	     -0.62898638	      0.86553861	     -1.04959669	     34.31669267	     -5.81010400	    -21.39875156	    -23.14785448	     -0.40400628	      5.07765916	     -7.57976454	     14.72232972	     -1.65323209	      6.57370813	     13.47725670	    -24.91912624	     -0.43492080	     15.13279430	      1.47568747	     -7.11561600	     -6.71369730	     -0.35722321	    -12.86867077	     -7.81591407	     -8.33757648	    -18.91460413	     22.46550414	     89.95437384	      0.00000000	      0.00000000	     11.05625772	     20.08682217	     13.79981366	     65.49589615	     89.95437384	      0.00000000	      0.00000000
      0.09000000	     -4.03753660	     -0.93353343	     11.67776111	     -0.61693407	      0.86395353	     -1.04973591	     34.58753149	     -5.96687587	    -21.79382133	    -22.56338152	     -0.39380530	      5.19804712	     -6.99159368	     14.11717213	     -2.40108228	      6.79586874	     13.41488110	    -25.10061042	     -0.43808830	     14.83202515	      1.23790222	     -7.17409003	     -6.61167714	     -0.29739369	    -13.10775918	     -7.98577682	     -8.29177495	    -19.07751529	     22.40951344	     89.95437384	      0.00000000	      0.00000000	     11.08927007	     20.44523915	     13.75161129	     66.59279256	     89.95437384	      0.00000000	      0.00000000
      0.10000000	     -3.87177716	     -0.97051539	     11.85344600	     -0.60422056	      0.86275279	     -1.05015045	     34.50183089	     -6.14868489	    -22.59320869	    -22.13862405	     -0.38639188	      4.74433876	     -6.16774946	      8.48779951	     -3.39245380	      7.14975577	     13.42768800	    -25.14443192	     -0.43885313	     14.11993464	      0.90425577	     -9.25478412	     -6.62694669	     -0.10679776	    -13.31548883	     -8.21422049	     -8.30295841	    -19.23090921	     22.35415618	     89.95437384	      0.00000000	      0.00000000	     11.20546994	     20.57039746	     13.76489556	     67.40695896	     89.95437384	      0.00000000	      0.00000000
      0.11000000	     -3.95814073	     -1.03248622	     11.95876147	     -0.59152019	      0.86131477	     -1.05012331	     34.79678943	     -6.12499881	    -22.44967694	    -22.30059979	     -0.38921889	      4.62920648	     -6.18966871	      8.34668015	     -4.05625352	      7.43348714	     13.11924140	    -25.30339716	     -0.44162759	     13.66175661	      0.92010442	     -9.09388992	     -6.36420869	      0.01763825	    -13.45296164	     -8.44553739	     -8.28428194	    -19.27707862	     22.28197873	     89.95437384	      0.00000000	      0.00000000	     11.17663486	     20.75834105	     13.71780011	     68.21998522	     89.95437384	      0.00000000	      0.00000000
      0.12000000	     -4.11910928	     -0.95107538	     12.09568587	     -0.57865925	      0.86003444	     -1.05012467	     35.00893081	     -6.21005168	    -22.01776017	    -22.65637045	     -0.39542826	      4.36145304	     -6.02712617	      8.19147737	     -4.55152312	      7.59127085	     12.83733242	    -25.68559389	     -0.44829818	     13.24607581	      0.92571862	     -8.90472122	     -6.00344146	     -0.00661285	    -13.54010135	     -8.81309114	     -8.24957251	    -19.23142986	     22.37340243	     89.95437384	      0.00000000	      0.00000000	     11.29666992	     20.77117369	     13.76146046	     68.56506525	     89.95437384	      0.00000000	      0.00000000
